<svg width="300" height="300" viewBox="0 0 300 300" fill="none" xmlns="http://www.w3.org/2000/svg">
<g clip-path="url(#clip0_291_28880)">
<path d="M267.188 52.1485V136.05C267.188 208.669 219.557 272.69 150 293.555C80.4451 272.697 32.8125 208.674 32.8125 136.05V52.1485C39.5874 50.2831 94.0705 47.2206 150 5.27344C206.072 47.3282 260.257 50.2396 267.188 52.1485V52.1485Z" fill="#ECECF1"/>
<path d="M150 33.8608C121.564 52.4003 89.5661 65.4031 56.25 71.901V142.962C59.0515 201.911 97.4396 250.454 150 268.904C206.362 248.96 243.75 196.429 243.75 136.05V71.901C210.434 65.4031 178.441 52.4003 150 33.8608Z" fill="#A7CDF5"/>
<path d="M150 102.539C175.887 102.539 196.875 123.528 196.875 149.414C196.875 175.301 175.887 196.289 150 196.289C124.113 196.289 103.125 175.301 103.125 149.414C103.125 123.528 124.113 102.539 150 102.539Z" fill="#D3E6FA"/>
<path d="M56.25 135.352C59.4841 135.352 62.1094 132.726 62.1094 129.492C62.1094 126.258 59.4841 123.633 56.25 123.633C53.0159 123.633 50.3906 126.258 50.3906 129.492C50.3906 132.726 53.0159 135.352 56.25 135.352Z" fill="#2482E6"/>
<path d="M268.151 46.367C261.395 44.5108 208.2 41.5994 153.516 0.586023C151.431 -0.977242 148.567 -0.977242 146.485 0.586023C91.7611 41.6292 38.4796 44.5405 31.8489 46.367C29.0245 46.8385 26.9531 49.283 26.9531 52.1486V136.05C26.9531 210.567 75.5242 277.339 148.318 299.167C148.867 299.332 149.433 299.414 150 299.414C150.568 299.414 151.135 299.332 151.682 299.167C222.899 277.803 273.047 212.197 273.047 136.05V52.1486C273.047 49.283 270.976 46.8385 268.151 46.367V46.367ZM261.328 136.05C261.328 206.037 216.667 266.65 150 287.428C83.8647 266.815 38.6719 205.655 38.6719 136.05V57.1107C42.8696 55.9434 95.9267 51.6038 150 12.5474C204.492 51.922 256.902 55.8565 261.328 57.1107V136.05Z" fill="#2482E6"/>
<path d="M244.872 66.1491C211.798 59.6992 181.769 47.1931 153.138 28.9169C151.234 27.7084 148.769 27.6786 146.8 28.9535C119.142 46.9825 87.4421 59.8457 55.1285 66.1491C52.3773 66.6847 50.3906 69.0948 50.3906 71.8986V106.055C50.3906 109.291 53.0136 111.914 56.25 111.914C59.4864 111.914 62.1094 109.291 62.1094 106.055V76.6823C90.7746 70.5368 118.852 59.4795 144.141 44.4122V97.007C117.81 99.9298 97.2657 122.317 97.2657 149.414C97.2657 176.509 117.81 198.896 144.141 201.821V260.362C99.5453 241.599 68.7653 200.869 63.0524 152.227C62.6747 149.014 59.7588 146.711 56.5498 147.091C53.3363 147.469 51.0361 150.38 51.4137 153.593C57.9941 209.622 95.7024 256.053 148.059 274.432C148.087 274.441 148.116 274.448 148.144 274.457C149.254 274.828 150.437 274.864 151.593 274.537C151.685 274.512 151.776 274.484 151.865 274.452C151.895 274.443 151.925 274.436 151.955 274.425C210.704 253.638 249.61 198.928 249.61 136.05V71.9009C249.61 69.0948 247.623 66.6847 244.872 66.1491ZM108.984 149.414C108.984 126.798 127.384 108.398 150 108.398C172.616 108.398 191.016 126.798 191.016 149.414C191.016 172.03 172.616 190.43 150 190.43C127.384 190.43 108.984 172.03 108.984 149.414ZM237.891 136.05C237.891 191.263 205.964 239.184 155.859 260.344V201.821C182.19 198.896 202.735 176.511 202.735 149.414C202.735 122.317 182.19 99.9298 155.859 97.007V44.4122C181.153 59.4795 209.23 70.5368 237.891 76.6823V136.05Z" fill="#2482E6"/>
<path d="M173.438 155.273C176.674 155.273 179.297 152.65 179.297 149.414C179.297 146.178 176.674 143.555 173.438 143.555H155.859V125.977C155.859 122.74 153.236 120.117 150 120.117C146.764 120.117 144.141 122.74 144.141 125.977V149.414C144.141 152.65 146.764 155.273 150 155.273H173.438Z" fill="#2482E6"/>
</g>
<defs>
<clipPath id="clip0_291_28880">
<rect width="300" height="300" fill="white"/>
</clipPath>
</defs>
</svg>
