<svg width="40" height="40" viewBox="0 0 40 40" fill="none" xmlns="http://www.w3.org/2000/svg">
<path d="M31.75 28.75H10.25V9.25C10.25 9.1125 10.1375 9 10 9H8.25C8.1125 9 8 9.1125 8 9.25V30.75C8 30.8875 8.1125 31 8.25 31H31.75C31.8875 31 32 30.8875 32 30.75V29C32 28.8625 31.8875 28.75 31.75 28.75ZM13 26.25H14.75C14.8875 26.25 15 26.1375 15 26V21.5C15 21.3625 14.8875 21.25 14.75 21.25H13C12.8625 21.25 12.75 21.3625 12.75 21.5V26C12.75 26.1375 12.8625 26.25 13 26.25ZM17.75 26.25H19.5C19.6375 26.25 19.75 26.1375 19.75 26V16C19.75 15.8625 19.6375 15.75 19.5 15.75H17.75C17.6125 15.75 17.5 15.8625 17.5 16V26C17.5 26.1375 17.6125 26.25 17.75 26.25ZM22.5 26.25H24.25C24.3875 26.25 24.5 26.1375 24.5 26V18.4375C24.5 18.3 24.3875 18.1875 24.25 18.1875H22.5C22.3625 18.1875 22.25 18.3 22.25 18.4375V26C22.25 26.1375 22.3625 26.25 22.5 26.25ZM27.25 26.25H29C29.1375 26.25 29.25 26.1375 29.25 26V13.5C29.25 13.3625 29.1375 13.25 29 13.25H27.25C27.1125 13.25 27 13.3625 27 13.5V26C27 26.1375 27.1125 26.25 27.25 26.25Z" fill="#353535" fill-opacity="0.6"/>
</svg>
