<svg width="40" height="40" viewBox="0 0 40 40" fill="none" xmlns="http://www.w3.org/2000/svg">
<path d="M34.8 10.6097L21.05 3.08318C20.7285 2.90563 20.3673 2.8125 20 2.8125C19.6327 2.8125 19.2715 2.90563 18.95 3.08318L5.2 10.6113C4.85595 10.7996 4.56883 11.0768 4.36871 11.4141C4.16859 11.7514 4.06283 12.1363 4.0625 12.5285V27.4722C4.06283 27.8644 4.16859 28.2493 4.36871 28.5866C4.56883 28.9239 4.85595 29.2012 5.2 29.3894L18.95 36.9176C19.2716 37.0948 19.6328 37.1878 20 37.1878C20.3672 37.1878 20.7284 37.0948 21.05 36.9176L34.8 29.3894C35.1441 29.2012 35.4312 28.9239 35.6313 28.5866C35.8314 28.2493 35.9372 27.8644 35.9375 27.4722V12.5285C35.9375 12.136 35.8318 11.7508 35.6317 11.4132C35.4316 11.0757 35.1443 10.7981 34.8 10.6097ZM19.8438 4.72693C19.8897 4.70177 19.9413 4.68858 19.9937 4.68858C20.0462 4.68858 20.0978 4.70177 20.1437 4.72693L33.2047 11.8754L20 19.1004L6.79531 11.8754L19.8438 4.72693ZM6.09375 27.7457C6.04583 27.718 6.00611 27.6781 5.97866 27.6301C5.95121 27.582 5.937 27.5276 5.9375 27.4722V13.541L19.0625 20.7285V34.8441L6.09375 27.7457ZM33.8937 27.7457L20.9375 34.8441V20.7254L34.0625 13.5379V27.4691C34.0636 27.525 34.0496 27.5801 34.0221 27.6287C33.9947 27.6774 33.9546 27.7178 33.9062 27.7457H33.8937Z" fill="#353535" fill-opacity="0.6"/>
</svg>
