<svg width="40" height="40" viewBox="0 0 40 40" fill="none" xmlns="http://www.w3.org/2000/svg">
<path d="M10.4486 16.7628C9.88219 17.4065 10.3354 18.4178 11.1928 18.4234L21.9155 18.4935C22.4652 18.4971 22.909 18.947 22.909 19.4967V19.4967C22.909 20.049 22.4613 20.5 21.909 20.5L11.1741 20.5C10.3198 20.5 9.85885 21.5021 10.4149 22.1508L11.3973 23.2969C11.7373 23.6937 11.7146 24.2853 11.3451 24.6548L11.2385 24.7614C10.8359 25.164 10.179 25.1498 9.79423 24.7301L5.61941 20.1757C5.26895 19.7934 5.26895 19.2066 5.6194 18.8243L9.79415 14.2699C10.1789 13.8502 10.8358 13.8359 11.2384 14.2385L11.2499 14.25L11.3365 14.3366C11.7095 14.7096 11.7286 15.3083 11.3801 15.7043L10.4486 16.7628ZM11.1218 29.7849C10.5424 29.1995 10.9925 28.2727 11.8162 28.2727H13.379C13.6226 28.2727 13.8567 28.363 14.0445 28.5181C15.6703 29.8607 17.6325 30.7378 19.7223 31.0523C21.9367 31.3855 24.2003 31.0726 26.2414 30.1513C28.2824 29.2299 30.0143 27.7392 31.2291 25.8579C32.4439 23.9767 33.0901 21.7848 33.0901 19.5455C33.0901 17.3061 32.4439 15.1142 31.2291 13.233C30.0143 11.3518 28.2824 9.86101 26.2414 8.93964C24.2003 8.01827 21.9367 7.70542 19.7223 8.03863C17.6325 8.35308 15.6703 9.23025 14.0445 10.5728C13.8567 10.7279 13.6226 10.8182 13.379 10.8182H11.8162C10.9925 10.8182 10.5424 9.89145 11.1218 9.30606C12.2343 8.18228 13.526 7.24446 14.9484 6.5333C16.9683 5.52331 19.196 4.99831 21.4544 5C29.4879 5 35.9999 11.512 35.9999 19.5455C35.9999 27.5789 29.4879 34.0909 21.4544 34.0909C19.196 34.0926 16.9683 33.5676 14.9484 32.5576C13.526 31.8465 12.2343 30.9086 11.1218 29.7849Z" fill="#818183"/>
</svg>
