<svg width="40" height="40" viewBox="0 0 40 40" fill="none" xmlns="http://www.w3.org/2000/svg">
<path d="M8.33333 18.333H21.6667V21.6663H8.33333V26.6663L0 19.9997L8.33333 13.333V18.333ZM6.66667 29.9997H11.18C13.1045 31.6969 15.4778 32.8028 18.0152 33.1846C20.5526 33.5664 23.1463 33.2079 25.485 32.1522C27.8237 31.0964 29.8081 29.3883 31.2001 27.2327C32.5921 25.0771 33.3325 22.5656 33.3325 19.9997C33.3325 17.4337 32.5921 14.9222 31.2001 12.7667C29.8081 10.6111 27.8237 8.90291 25.485 7.84718C23.1463 6.79144 20.5526 6.43297 18.0152 6.81478C15.4778 7.19658 13.1045 8.30245 11.18 9.99968H6.66667C8.21777 7.9283 10.2306 6.2472 12.5451 5.08992C14.8597 3.93263 17.4122 3.33107 20 3.33301C29.205 3.33301 36.6667 10.7947 36.6667 19.9997C36.6667 29.2047 29.205 36.6663 20 36.6663C17.4122 36.6683 14.8597 36.0667 12.5451 34.9094C10.2306 33.7522 8.21777 32.0711 6.66667 29.9997Z" fill="#353535" fill-opacity="0.6"/>
</svg>
