<svg width="40" height="40" viewBox="0 0 40 40" fill="none" xmlns="http://www.w3.org/2000/svg">
<path d="M20 6C12.2688 6 6 12.2688 6 20C6 27.7312 12.2688 34 20 34C27.7312 34 34 27.7312 34 20C34 12.2688 27.7312 6 20 6ZM20 31.625C13.5813 31.625 8.375 26.4187 8.375 20C8.375 13.5813 13.5813 8.375 20 8.375C26.4187 8.375 31.625 13.5813 31.625 20C31.625 26.4187 26.4187 31.625 20 31.625ZM26.2 13.2469C26.0776 13.1991 25.947 13.1758 25.8156 13.1785C25.6843 13.1812 25.5547 13.2097 25.4344 13.2625L16.9656 16.9688L13.2625 25.4375C13.15 25.6937 13.15 25.9844 13.2625 26.2406C13.3687 26.4844 13.5656 26.675 13.8156 26.7719C13.9344 26.8188 14.0562 26.8406 14.1812 26.8406C14.3187 26.8406 14.4531 26.8125 14.5813 26.7563L23.05 23.05L26.7531 14.5813C26.8072 14.4577 26.8357 14.3244 26.837 14.1895C26.8383 14.0547 26.8123 13.9209 26.7606 13.7963C26.709 13.6717 26.6327 13.5588 26.5364 13.4644C26.44 13.37 26.3256 13.296 26.2 13.2469V13.2469ZM22.025 20.7L22.8438 21.5187L21.5187 22.8438L20.7 22.025L15.875 24.1375L17.9844 19.3125L17.1875 18.5125L18.5125 17.1875L19.3094 17.9844L24.1375 15.875L22.025 20.7ZM18.5125 17.1875L17.1875 18.5125L17.9844 19.3125L20.7 22.025L21.5187 22.8438L22.8438 21.5187L22.025 20.7L19.3125 17.9844L18.5125 17.1875Z" fill="#353535" fill-opacity="0.6"/>
</svg>
