<svg width="40" height="40" viewBox="0 0 40 40" fill="none" xmlns="http://www.w3.org/2000/svg">
<path d="M32.9 23.5529L30.8531 21.8029C30.95 21.2092 31 20.6029 31 19.9967C31 19.3904 30.95 18.7842 30.8531 18.1904L32.9 16.4404C33.0544 16.3083 33.1649 16.1322 33.2168 15.9357C33.2687 15.7392 33.2596 15.5316 33.1906 15.3404L33.1625 15.2592C32.599 13.6843 31.7552 12.2243 30.6719 10.9498L30.6156 10.8842C30.4842 10.7297 30.309 10.6186 30.1132 10.5656C29.9174 10.5126 29.7101 10.5202 29.5187 10.5873L26.9781 11.4904C26.0406 10.7217 24.9937 10.1154 23.8625 9.69043L23.3719 7.03418C23.3348 6.83431 23.2379 6.65044 23.0939 6.50699C22.9499 6.36353 22.7656 6.26729 22.5656 6.23105L22.4812 6.21543C20.8531 5.92168 19.1406 5.92168 17.5125 6.21543L17.4281 6.23105C17.2281 6.26729 17.0438 6.36353 16.8998 6.50699C16.7558 6.65044 16.6589 6.83431 16.6219 7.03418L16.1281 9.70293C15.0059 10.128 13.9608 10.7339 13.0344 11.4967L10.475 10.5873C10.2836 10.5196 10.0762 10.5118 9.88028 10.5648C9.68436 10.6178 9.50921 10.7292 9.37811 10.8842L9.32186 10.9498C8.23982 12.2252 7.39616 13.6849 6.83123 15.2592L6.80311 15.3404C6.66248 15.7311 6.77811 16.1686 7.09373 16.4404L9.16561 18.2092C9.06873 18.7967 9.02186 19.3967 9.02186 19.9936C9.02186 20.5936 9.06873 21.1936 9.16561 21.7779L7.09373 23.5467C6.93935 23.6788 6.82885 23.8549 6.77693 24.0514C6.72502 24.2479 6.73415 24.4555 6.80311 24.6467L6.83123 24.7279C7.39686 26.3029 8.23436 27.7561 9.32186 29.0373L9.37811 29.1029C9.50953 29.2575 9.68468 29.3685 9.88049 29.4215C10.0763 29.4745 10.2836 29.467 10.475 29.3998L13.0344 28.4904C13.9656 29.2561 15.0062 29.8623 16.1281 30.2842L16.6219 32.9529C16.6589 33.1528 16.7558 33.3367 16.8998 33.4801C17.0438 33.6236 17.2281 33.7198 17.4281 33.7561L17.5125 33.7717C19.1556 34.067 20.8381 34.067 22.4812 33.7717L22.5656 33.7561C22.7656 33.7198 22.9499 33.6236 23.0939 33.4801C23.2379 33.3367 23.3348 33.1528 23.3719 32.9529L23.8625 30.2967C24.9933 29.8728 26.0461 29.2646 26.9781 28.4967L29.5187 29.3998C29.7101 29.4675 29.9175 29.4753 30.1134 29.4223C30.3094 29.3693 30.4845 29.2579 30.6156 29.1029L30.6719 29.0373C31.7594 27.7529 32.5969 26.3029 33.1625 24.7279L33.1906 24.6467C33.3312 24.2623 33.2156 23.8248 32.9 23.5529V23.5529ZM28.6344 18.5592C28.7125 19.0311 28.7531 19.5154 28.7531 19.9998C28.7531 20.4842 28.7125 20.9686 28.6344 21.4404L28.4281 22.6936L30.7625 24.6904C30.4086 25.5057 29.9619 26.2775 29.4312 26.9904L26.5312 25.9623L25.55 26.7686C24.8031 27.3811 23.9719 27.8623 23.0719 28.1998L21.8812 28.6467L21.3219 31.6779C20.4393 31.7779 19.5482 31.7779 18.6656 31.6779L18.1062 28.6404L16.925 28.1873C16.0344 27.8498 15.2062 27.3686 14.4656 26.7592L13.4844 25.9498L10.5656 26.9873C10.0344 26.2717 9.59061 25.4998 9.23436 24.6873L11.5937 22.6717L11.3906 21.4217C11.3156 20.9561 11.275 20.4748 11.275 19.9998C11.275 19.5217 11.3125 19.0436 11.3906 18.5779L11.5937 17.3279L9.23436 15.3123C9.58748 14.4967 10.0344 13.7279 10.5656 13.0123L13.4844 14.0498L14.4656 13.2404C15.2062 12.6311 16.0344 12.1498 16.925 11.8123L18.1094 11.3654L18.6687 8.32793C19.5469 8.22793 20.4437 8.22793 21.325 8.32793L21.8844 11.3592L23.075 11.8061C23.9719 12.1436 24.8062 12.6248 25.5531 13.2373L26.5344 14.0436L29.4344 13.0154C29.9656 13.7311 30.4094 14.5029 30.7656 15.3154L28.4312 17.3123L28.6344 18.5592ZM20 14.1873C16.9625 14.1873 14.5 16.6498 14.5 19.6873C14.5 22.7248 16.9625 25.1873 20 25.1873C23.0375 25.1873 25.5 22.7248 25.5 19.6873C25.5 16.6498 23.0375 14.1873 20 14.1873ZM22.475 22.1623C22.1504 22.4879 21.7646 22.746 21.3398 22.9219C20.9151 23.0978 20.4597 23.188 20 23.1873C19.0656 23.1873 18.1875 22.8217 17.525 22.1623C17.1994 21.8377 16.9413 21.4519 16.7654 21.0271C16.5895 20.6024 16.4993 20.147 16.5 19.6873C16.5 18.7529 16.8656 17.8748 17.525 17.2123C18.1875 16.5498 19.0656 16.1873 20 16.1873C20.9344 16.1873 21.8125 16.5498 22.475 17.2123C22.8005 17.5369 23.0587 17.9227 23.2346 18.3475C23.4105 18.7722 23.5007 19.2276 23.5 19.6873C23.5 20.6217 23.1344 21.4998 22.475 22.1623Z" fill="#353535" fill-opacity="0.6"/>
</svg>
